Musala-Papel.ufo
<glyph name="zero" format="2">
	<advance width="669"/>
	<unicode hex="0030"/>
	<outline>
		<contour>
			<point x="338" y="-9" type="curve" smooth="yes"/>
			<point x="489" y="-9"/>
			<point x="629" y="84.068"/>
			<point x="629" y="394.401" type="curve" smooth="yes"/>
			<point x="629" y="643.068"/>
			<point x="516" y="769"/>
			<point x="349" y="769" type="curve" smooth="yes"/>
			<point x="218.233" y="769"/>
			<point x="40" y="681.115"/>
			<point x="40" y="368.068" type="curve" smooth="yes"/>
			<point x="40" y="123.236"/>
			<point x="133.071" y="-9"/>
		</contour>
		<contour>
			<point x="172.925" y="266.218" type="curve" smooth="yes"/>
			<point x="164.59444" y="432.48106"/>
			<point x="171.556" y="544.916"/>
			<point x="209.344" y="636.268" type="curve"/>
			<point x="234.03598" y="658.24361"/>
			<point x="287.741" y="680"/>
			<point x="337.595" y="680" type="curve" smooth="yes"/>
			<point x="419.607" y="680"/>
			<point x="494.593" y="631"/>
			<point x="497.64712" y="451.24896" type="curve" smooth="yes"/>
			<point x="500.79351" y="266.0676"/>
			<point x="492.36908" y="174.6134"/>
			<point x="469.922" y="133.894" type="curve"/>
			<point x="456.73295" y="117.26847"/>
			<point x="406.19" y="81"/>
			<point x="335.832" y="81" type="curve" smooth="yes"/>
			<point x="244.32765" y="81"/>
			<point x="178.7095" y="150.76972"/>
		</contour>
	</outline>
</glyph>
<glyph name="three" format="2">
	<advance width="565.13"/>
	<unicode hex="0033"/>
	<guideline x="514.8" y="369.12" angle="270"/>
	<outline>
		<contour>
			<point x="520.132" y="252.547" type="curve" smooth="yes"/>
			<point x="520.132" y="122.727"/>
			<point x="428.741" y="-12.354"/>
			<point x="251.411" y="-12.354" type="curve" smooth="yes"/>
			<point x="147.81281" y="-12.354"/>
			<point x="77.886" y="19.432"/>
			<point x="63.827" y="25.934" type="curve"/>
			<point x="59.53" y="32.458"/>
			<point x="44.997" y="70.295"/>
			<point x="44.997" y="78.11" type="curve" smooth="yes"/>
			<point x="44.997" y="85.551"/>
			<point x="107.246" y="134.414"/>
			<point x="116.835" y="142.592" type="curve"/>
			<point x="130.069" y="131.781"/>
			<point x="175.26594" y="78"/>
			<point x="252.9925" y="78" type="curve" smooth="yes"/>
			<point x="296.31879" y="78"/>
			<point x="331.112" y="88.313"/>
			<point x="347.966" y="99.575" type="curve"/>
			<point x="359.428" y="111.727"/>
			<point x="390.383" y="160.51728"/>
			<point x="390.383" y="244.465" type="curve" smooth="yes"/>
			<point x="390.383" y="318.976"/>
			<point x="361.543" y="378.461"/>
			<point x="257.737" y="378.461" type="curve" smooth="yes"/>
			<point x="215.908" y="378.461"/>
			<point x="182.504" y="367.686"/>
			<point x="168.042" y="362.128" type="curve"/>
			<point x="163.356" y="368.077"/>
			<point x="141.313" y="408.143"/>
			<point x="130.642" y="417.63" type="curve"/>
			<point x="201.293" y="473.436"/>
			<point x="326.405" y="597.092"/>
			<point x="361.984" y="657.471" type="curve"/>
			<point x="63.03" y="657.471" type="line"/>
			<point x="110.995" y="765.152" type="line"/>
			<point x="246.485" y="751.149"/>
			<point x="407.953" y="753.359"/>
			<point x="505.71" y="762.471" type="curve"/>
			<point x="498.071" y="676.465" type="line"/>
			<point x="449.41" y="604.798"/>
			<point x="345.526" y="492.18"/>
			<point x="264.599" y="418.562" type="curve"/>
			<point x="263.599" y="455.297" type="line"/>
			<point x="398.428" y="486.168"/>
			<point x="520.132" y="395.545"/>
		</contour>
	</outline>
</glyph>
<glyph name="four" format="2">
	<advance width="662.14"/>
	<unicode hex="0034"/>
	<outline>
		<contour>
			<point x="141.549" y="234.055" type="line"/>
			<point x="368.677" y="596.927" type="line"/>
			<point x="361.194" y="-0.009" type="line"/>
			<point x="508.071" y="-0.009" type="line"/>
			<point x="504.247" y="17.285"/>
			<point x="499.231" y="85.031"/>
			<point x="497.054" y="116.779" type="curve"/>
			<point x="497.065" y="585.287" type="line"/>
			<point x="496.803" y="623.966"/>
			<point x="513.29" y="718.947"/>
			<point x="518.892" y="743.524" type="curve"/>
			<point x="514.038" y="747.509"/>
			<point x="461.28" y="762.446"/>
			<point x="450.364" y="762.366" type="curve" smooth="yes"/>
			<point x="439.714" y="762.288"/>
			<point x="360.194" y="739.949"/>
			<point x="340.79" y="729.164" type="curve"/>
			<point x="312.351" y="668.106"/>
			<point x="90.275" y="320.164"/>
			<point x="39.998" y="261.637" type="curve"/>
		</contour>
		<contour>
			<point x="568.142" y="198.17" type="curve"/>
			<point x="612.142" y="302.17" type="line"/>
			<point x="503.476" y="305.369"/>
			<point x="382.57" y="303.032"/>
			<point x="268.071" y="303.032" type="curve" smooth="yes"/>
			<point x="226.718" y="303.032"/>
			<point x="140.351" y="292.152"/>
			<point x="116.926" y="286.934" type="curve"/>
			<point x="39.998" y="261.637" type="line"/>
			<point x="98.444" y="204.001" type="line"/>
			<point x="257.112" y="210.778"/>
			<point x="428.299" y="207.842"/>
		</contour>
	</outline>
</glyph>
<glyph name="seven" format="2">
	<advance width="580.12"/>
	<unicode hex="0037"/>
	<outline>
		<contour>
			<point x="119.742" y="-0.009" type="line"/>
			<point x="276.424" y="-0.216" type="line"/>
			<point x="304.419" y="106.669"/>
			<point x="511.312" y="642.682"/>
			<point x="525.888" y="668.808" type="curve"/>
			<point x="444.95" y="677.412" type="line"/>
			<point x="431.166" y="662.16"/>
			<point x="402.921" y="614.981"/>
			<point x="390.866" y="591.707" type="curve" smooth="yes"/>
			<point x="380.741" y="572.157"/>
			<point x="240.167" y="320.296"/>
			<point x="165.341" y="135.683" type="curve"/>
		</contour>
		<contour>
			<point x="540.121" y="760.152" type="line"/>
			<point x="361.079" y="749.152"/>
			<point x="249.037" y="752.152"/>
			<point x="89.995" y="763.152" type="curve"/>
			<point x="39.995" y="659.152" type="line"/>
			<point x="94.325" y="660.875"/>
			<point x="344.72" y="656.093"/>
			<point x="446.013" y="656.093" type="curve" smooth="yes"/>
			<point x="465.97" y="656.093"/>
			<point x="506.187" y="664.512"/>
			<point x="525.888" y="668.808" type="curve"/>
		</contour>
	</outline>
</glyph>
<glyph name="nine" format="2">
	<advance width="628"/>
	<unicode hex="0039"/>
	<outline>
		<contour>
			<point x="578" y="383.497" type="curve" smooth="yes"/>
			<point x="578" y="571.44531"/>
			<point x="522.289" y="771.497"/>
			<point x="320" y="771.497" type="curve" smooth="yes"/>
			<point x="167.726" y="771.497"/>
			<point x="50" y="655.497"/>
			<point x="50" y="501.497" type="curve" smooth="yes"/>
			<point x="50" y="314.497"/>
			<point x="179" y="285.497"/>
			<point x="281.885" y="285.497" type="curve" smooth="yes"/>
			<point x="348.08" y="285.497"/>
			<point x="407.685" y="311.559"/>
			<point x="439.932" y="321.497" type="curve"/>
			<point x="439.932" y="238.906"/>
			<point x="433.698" y="147.875"/>
			<point x="399.966" y="102.575" type="curve"/>
			<point x="388.66" y="87.392"/>
			<point x="345.523" y="77.481"/>
			<point x="307.411" y="77.481" type="curve" smooth="yes"/>
			<point x="237.125" y="77.481"/>
			<point x="178.474" y="130.902"/>
			<point x="158.835" y="143.592" type="curve"/>
			<point x="147.652" y="137.781"/>
			<point x="88.065" y="89.392"/>
			<point x="88.065" y="78.442" type="curve" smooth="yes"/>
			<point x="88.065" y="70.511"/>
			<point x="98.272" y="39.404"/>
			<point x="107.585" y="24.674" type="curve"/>
			<point x="137.379" y="11.002"/>
			<point x="210.482" y="-12"/>
			<point x="277.589" y="-12" type="curve" smooth="yes"/>
			<point x="548.139" y="-12"/>
			<point x="578" y="195.55469"/>
		</contour>
		<contour>
			<point x="446" y="391.497" type="curve"/>
			<point x="399.662" y="379.024"/>
			<point x="340.737" y="366.497"/>
			<point x="299" y="366.497" type="curve" smooth="yes"/>
			<point x="220" y="366.497"/>
			<point x="182" y="403.497"/>
			<point x="182" y="504.497" type="curve" smooth="yes"/>
			<point x="182" y="561.497"/>
			<point x="192" y="625.497"/>
			<point x="211" y="653.497" type="curve"/>
			<point x="224" y="663.497"/>
			<point x="257.569" y="677.497"/>
			<point x="311.245" y="677.497" type="curve" smooth="yes"/>
			<point x="433.174" y="677.497"/>
			<point x="446" y="519.599"/>
		</contour>
	</outline>
</glyph>
<glyph name="question" format="2">
	<advance width="529.29"/>
	<unicode hex="003F"/>
	<outline>
		<contour>
			<point x="310.381" y="209.856" type="curve"/>
			<point x="288.52" y="333.976" type="line"/>
			<point x="310.381" y="357.442"/>
			<point x="444.462" y="485.508"/>
			<point x="456.623" y="502.767" type="curve"/>
			<point x="466.946" y="523.383"/>
			<point x="473.468" y="611.168"/>
			<point x="466.515" y="673.488" type="curve"/>
			<point x="435.663" y="748.813"/>
			<point x="376.104" y="807"/>
			<point x="276.968" y="807" type="curve" smooth="yes"/>
			<point x="162.688" y="807"/>
			<point x="86.378" y="745.395"/>
			<point x="41.455" y="678.331" type="curve"/>
			<point x="120.269" y="629.942" type="line"/>
			<point x="131.831" y="644.93"/>
			<point x="190.212" y="719.821"/>
			<point x="251.81" y="719.821" type="curve" smooth="yes"/>
			<point x="303.739" y="719.821"/>
			<point x="336.073" y="648.23"/>
			<point x="342.052" y="620.25" type="curve"/>
			<point x="342.052" y="539.199"/>
			<point x="253.764" y="431.91"/>
			<point x="183.526" y="371.479" type="curve"/>
			<point x="175.043" y="326.297"/>
			<point x="170.076" y="249.58"/>
			<point x="170.076" y="206.932" type="curve"/>
			<point x="189.066" y="195.249"/>
			<point x="209.198" y="185.895"/>
			<point x="219.744" y="184.03" type="curve" smooth="yes"/>
			<point x="230.188" y="182.182"/>
			<point x="303.403" y="205.612"/>
		</contour>
		<contour>
			<point x="334.93" y="28.865" type="curve" smooth="yes"/>
			<point x="334.93" y="-16.559"/>
			<point x="298.13" y="-48.382"/>
			<point x="251.81" y="-48.382" type="curve" smooth="yes"/>
			<point x="205.904" y="-48.382"/>
			<point x="168.689" y="-16.559"/>
			<point x="168.689" y="28.865" type="curve" smooth="yes"/>
			<point x="168.689" y="74.289"/>
			<point x="205.904" y="106.111"/>
			<point x="251.81" y="106.111" type="curve" smooth="yes"/>
			<point x="297.716" y="106.111"/>
			<point x="334.93" y="74.289"/>
		</contour>
	</outline>
</glyph>
<glyph name="C" format="2">
	<advance width="682.95"/>
	<unicode hex="0043"/>
	<outline>
		<contour>
			<point x="632.9528" y="74.64466" type="curve"/>
			<point x="592.24495" y="137.47514" type="line"/>
			<point x="548.74077" y="103.16024"/>
			<point x="479.27764" y="64.681"/>
			<point x="403.365" y="64.681" type="curve" smooth="yes"/>
			<point x="259.532" y="64.681"/>
			<point x="177.65" y="168.196"/>
			<point x="177.65" y="379.892" type="curve" smooth="yes"/>
			<point x="177.65" y="598.87"/>
			<point x="250.335" y="691.227"/>
			<point x="404.939" y="691.227" type="curve" smooth="yes"/>
			<point x="490.53918" y="691.227"/>
			<point x="545.05857" y="658.83143"/>
			<point x="567.57962" y="637.48333" type="curve"/>
			<point x="622.06972" y="709.57427" type="line"/>
			<point x="582.32043" y="736.13514"/>
			<point x="516.3365" y="770.912"/>
			<point x="404.693" y="770.912" type="curve" smooth="yes"/>
			<point x="205.322" y="770.912"/>
			<point x="60.003" y="647.795"/>
			<point x="60.003" y="362.097" type="curve" smooth="yes"/>
			<point x="60.003" y="116.99"/>
			<point x="205.322" y="-11"/>
			<point x="403.178" y="-11" type="curve" smooth="yes"/>
			<point x="490.53918" y="-11"/>
			<point x="572.04732" y="29.83948"/>
		</contour>
	</outline>
</glyph>
<glyph name="D" format="2">
	<advance width="688"/>
	<unicode hex="0044"/>
	<outline>
		<contour>
			<point x="64.99572" y="1" type="curve"/>
			<point x="256.99572" y="0" type="line"/>
			<point x="483.19572" y="0"/>
			<point x="622.99572" y="153.8"/>
			<point x="622.99572" y="382" type="curve" smooth="yes"/>
			<point x="622.99572" y="634.6"/>
			<point x="542.23368" y="770"/>
			<point x="239.99572" y="770" type="curve" smooth="yes"/>
			<point x="205.99572" y="770"/>
			<point x="109.99572" y="759"/>
			<point x="65.99572" y="751" type="curve"/>
			<point x="76.99572" y="584" type="line"/>
			<point x="75.99572" y="154" type="line"/>
			<point x="75.99572" y="154"/>
			<point x="64.99572" y="2"/>
		</contour>
		<contour>
			<point x="178.99572" y="75" type="line"/>
			<point x="180.99572" y="694" type="line"/>
			<point x="159.99572" y="670" type="line"/>
			<point x="182.99572" y="672"/>
			<point x="230.22844" y="680"/>
			<point x="310.99572" y="680" type="curve" smooth="yes"/>
			<point x="417.99572" y="680"/>
			<point x="511.99572" y="610"/>
			<point x="511.99572" y="407" type="curve" smooth="yes"/>
			<point x="511.99572" y="218"/>
			<point x="424.99572" y="92"/>
			<point x="302.99572" y="91" type="curve" smooth="yes"/>
			<point x="264.99699" y="90.68854"/>
			<point x="156.99572" y="98"/>
			<point x="155.99572" y="99" type="curve"/>
		</contour>
	</outline>
</glyph>
<glyph name="F" format="2">
	<advance width="574"/>
	<unicode hex="0046"/>
	<anchor x="272" y="800" name="top"/>
	<anchor x="272" y="0" name="bottom"/>
	<anchor x="493" y="10" name="ogonek"/>
	<anchor x="16" y="800" name="topleft"/>
	<outline>
		<contour>
			<point x="134" y="332" type="line"/>
			<point x="459" y="332" type="line"/>
			<point x="459" y="404" type="line"/>
			<point x="134" y="404" type="line"/>
		</contour>
		<contour>
			<point x="60" y="0.385" type="line"/>
			<point x="177" y="0.385" type="line"/>
			<point x="177" y="719.385" type="line"/>
			<point x="140" y="685.385" type="line"/>
			<point x="140" y="685.385"/>
			<point x="410" y="685.385"/>
			<point x="410" y="685.385" type="curve"/>
			<point x="514" y="673.385" type="line"/>
			<point x="514" y="757.385" type="line"/>
			<point x="60" y="757.385" type="line"/>
			<point x="60" y="757.385"/>
			<point x="72" y="588.385"/>
			<point x="72" y="588.385" type="curve"/>
			<point x="72" y="154.385" type="line"/>
		</contour>
	</outline>
</glyph>
<glyph name="H" format="2">
	<advance width="745"/>
	<unicode hex="0048"/>
	<guideline x="43.86" y="640" angle="0"/>
	<guideline x="71.86" y="0" angle="0"/>
	<guideline x="198.86" y="0" angle="0"/>
	<guideline x="43.86" y="688" angle="0"/>
	<guideline x="86.86" y="0" angle="0"/>
	<outline>
		<contour>
			<point x="100" y="0" type="line"/>
			<point x="217" y="0" type="line"/>
			<point x="216" y="757.385" type="line"/>
			<point x="216" y="757.385"/>
			<point x="100" y="757.385"/>
			<point x="100" y="757.385" type="curve"/>
			<point x="112" y="588" type="line"/>
			<point x="112" y="154" type="line"/>
		</contour>
		<contour>
			<point x="173" y="342" type="line"/>
			<point x="573" y="342" type="line"/>
			<point x="573" y="414" type="line"/>
			<point x="173" y="414" type="line"/>
		</contour>
		<contour>
			<point x="645" y="0" type="line"/>
			<point x="633" y="154" type="line"/>
			<point x="633" y="588" type="line"/>
			<point x="645" y="757.385" type="line"/>
			<point x="529" y="757.385" type="line"/>
			<point x="528" y="0" type="line"/>
		</contour>
	</outline>
</glyph>
<glyph name="I" format="2">
	<advance width="250"/>
	<unicode hex="0049"/>
	<anchor x="133.4525" y="780" name="top"/>
	<anchor x="124" y="0" name="bottom"/>
	<anchor x="236" y="10" name="ogonek"/>
	<anchor x="5" y="800" name="topleft"/>
	<outline>
		<contour>
			<point x="68" y="757" type="line"/>
			<point x="68" y="757"/>
			<point x="79" y="598"/>
			<point x="79" y="598" type="curve"/>
			<point x="79" y="153" type="line"/>
			<point x="79" y="153"/>
			<point x="65" y="1"/>
			<point x="65" y="0" type="curve"/>
			<point x="185" y="0" type="line"/>
			<point x="185" y="756" type="line"/>
		</contour>
	</outline>
</glyph>
<glyph name="K" format="2">
	<advance width="651"/>
	<unicode hex="004B"/>
	<guideline x="757.72" y="779.48" angle="0"/>
	<outline>
		<contour>
			<point x="160.00309" y="249" type="line"/>
			<point x="474.00309" y="634" type="line"/>
			<point x="587.00309" y="757" type="line"/>
			<point x="449.00309" y="757" type="line"/>
			<point x="122.00309" y="315" type="line"/>
		</contour>
		<contour>
			<point x="66.00309" y="0" type="curve"/>
			<point x="182.00309" y="0" type="line"/>
			<point x="182.00309" y="757.385" type="line"/>
			<point x="65.00309" y="757.385" type="line"/>
			<point x="78.00309" y="592" type="line"/>
			<point x="78.00309" y="154" type="line"/>
			<point x="78.00309" y="154"/>
			<point x="66.00309" y="0"/>
		</contour>
		<contour>
			<point x="463.00309" y="0" type="line"/>
			<point x="591.00309" y="0" type="line"/>
			<point x="591.00309" y="0"/>
			<point x="489.00309" y="144"/>
			<point x="489.00309" y="144" type="curve"/>
			<point x="309.00309" y="454" type="line"/>
			<point x="235.00309" y="391" type="line"/>
		</contour>
	</outline>
</glyph>
<glyph name="N" format="2">
	<advance width="678"/>
	<unicode hex="004E"/>
	<anchor x="357.04322" y="794.55492" name="top"/>
	<anchor x="336" y="0" name="bottom"/>
	<outline>
		<contour>
			<point x="60" y="0" type="line"/>
			<point x="155" y="0" type="line"/>
			<point x="155" y="630" type="line"/>
			<point x="190" y="549" type="line"/>
			<point x="494" y="0" type="line"/>
			<point x="605" y="0" type="line"/>
			<point x="608" y="0"/>
			<point x="606" y="604"/>
			<point x="606" y="604" type="curve"/>
			<point x="618" y="758" type="line"/>
			<point x="523" y="758" type="line"/>
			<point x="524" y="166" type="line"/>
			<point x="491" y="247" type="line"/>
			<point x="204" y="758" type="line"/>
			<point x="71" y="758" type="line"/>
			<point x="72" y="154" type="line"/>
		</contour>
	</outline>
</glyph>
<glyph name="O" format="2">
	<advance width="787.84"/>
	<unicode hex="004F"/>
	<anchor x="401.65" y="780" name="top"/>
	<anchor x="489.65" y="0" name="bottom"/>
	<anchor x="489.65" y="400" name="center"/>
	<anchor x="743.65" y="800" name="topright"/>
	<anchor x="764.65" y="10" name="ogonek"/>
	<anchor x="165.65" y="800" name="topleft"/>
	<outline>
		<contour>
			<point x="396.1777" y="-11" type="curve" smooth="yes"/>
			<point x="584.60295" y="-11"/>
			<point x="727.843" y="140.42902"/>
			<point x="727.843" y="375.53593" type="curve" smooth="yes"/>
			<point x="727.843" y="656.23439"/>
			<point x="575.54473" y="770.91243"/>
			<point x="397.69327" y="770.91243" type="curve" smooth="yes"/>
			<point x="205.32156" y="770.91243"/>
			<point x="60.00299" y="642.79515"/>
			<point x="60.00299" y="362.0967" type="curve" smooth="yes"/>
			<point x="60.00299" y="126.98978"/>
			<point x="205.32156" y="-11"/>
		</contour>
		<contour>
			<point x="396.36467" y="67.68132" type="curve" smooth="yes"/>
			<point x="259.53242" y="67.68132"/>
			<point x="174.65" y="163.19641"/>
			<point x="174.65" y="379.89219" type="curve" smooth="yes"/>
			<point x="174.65" y="593.86998"/>
			<point x="251.33454" y="693.22726"/>
			<point x="398.93948" y="693.22726" type="curve" smooth="yes"/>
			<point x="521.78997" y="693.22726"/>
			<point x="608.13776" y="602.39041"/>
			<point x="608.13776" y="380.29093" type="curve" smooth="yes"/>
			<point x="608.13776" y="216.10462"/>
			<point x="549.74997" y="67.68132"/>
		</contour>
	</outline>
</glyph>
<glyph name="P" format="2">
	<advance width="617"/>
	<unicode hex="0050"/>
	<guideline x="10.86" y="0" angle="0"/>
	<guideline x="-20.14" y="535" angle="0"/>
	<outline>
		<contour>
			<point x="65" y="0" type="curve"/>
			<point x="181" y="0" type="line"/>
			<point x="181" y="719" type="line"/>
			<point x="157" y="693" type="line"/>
			<point x="174" y="694"/>
			<point x="223" y="698"/>
			<point x="257" y="698" type="curve" smooth="yes"/>
			<point x="361.06105" y="698"/>
			<point x="446" y="656.89307"/>
			<point x="446" y="518.26322" type="curve" smooth="yes"/>
			<point x="446" y="361.26322"/>
			<point x="351.4375" y="313"/>
			<point x="277.29688" y="313" type="curve" smooth="yes"/>
			<point x="216.44531" y="313"/>
			<point x="174" y="320"/>
			<point x="153" y="327" type="curve"/>
			<point x="120" y="264" type="line"/>
			<point x="157" y="254"/>
			<point x="242.90265" y="239"/>
			<point x="290.96569" y="239" type="curve" smooth="yes"/>
			<point x="397.948" y="239"/>
			<point x="552" y="312.97765"/>
			<point x="552" y="502.97765" type="curve" smooth="yes"/>
			<point x="552" y="703"/>
			<point x="431.75417" y="771"/>
			<point x="221" y="771" type="curve" smooth="yes"/>
			<point x="157.6807" y="771"/>
			<point x="67" y="750"/>
			<point x="67" y="750" type="curve"/>
			<point x="76" y="583" type="line"/>
			<point x="78" y="154" type="line"/>
			<point x="78" y="154"/>
			<point x="65" y="0"/>
		</contour>
	</outline>
</glyph>
<glyph name="Q" format="2">
	<advance width="787.84"/>
	<unicode hex="0051"/>
	<guideline x="669" y="345.88" angle="270"/>
	<outline>
		<contour>
			<point x="627.374" y="-174.16" type="line"/>
			<point x="683.36305" y="-88.30879" type="line"/>
			<point x="510.50391" y="-26.78125" type="line"/>
			<point x="285.98643" y="44.00157" type="line"/>
			<point x="226.98643" y="32.00057" type="line"/>
		</contour>
		<component base="O"/>
	</outline>
</glyph>
<glyph name="R" format="2">
	<advance width="656"/>
	<unicode hex="0052"/>
	<outline>
		<contour>
			<point x="65" y="0" type="curve"/>
			<point x="181" y="0" type="line"/>
			<point x="181" y="719" type="line"/>
			<point x="157" y="693" type="line"/>
			<point x="174" y="694"/>
			<point x="223" y="698"/>
			<point x="257" y="698" type="curve" smooth="yes"/>
			<point x="327" y="698"/>
			<point x="444" y="679.89307"/>
			<point x="444" y="551.26322" type="curve" smooth="yes"/>
			<point x="444" y="404.26322"/>
			<point x="351.4375" y="373"/>
			<point x="277.29688" y="373" type="curve" smooth="yes"/>
			<point x="216.44531" y="373"/>
			<point x="174" y="375"/>
			<point x="153" y="377" type="curve"/>
			<point x="120" y="314" type="line"/>
			<point x="157" y="304"/>
			<point x="270.60295" y="299"/>
			<point x="318.66599" y="299" type="curve" smooth="yes"/>
			<point x="356.66599" y="299"/>
			<point x="550" y="367.97765"/>
			<point x="550" y="527.97765" type="curve" smooth="yes"/>
			<point x="550" y="734.7662"/>
			<point x="405.4" y="771"/>
			<point x="221" y="771" type="curve" smooth="yes"/>
			<point x="178.46289" y="771"/>
			<point x="67" y="750"/>
			<point x="67" y="750" type="curve"/>
			<point x="76" y="583" type="line"/>
			<point x="78" y="154" type="line"/>
			<point x="78" y="154"/>
			<point x="65" y="0"/>
		</contour>
		<contour>
			<point x="458" y="-1" type="line"/>
			<point x="596" y="-1" type="line"/>
			<point x="596" y="-1"/>
			<point x="524" y="106"/>
			<point x="524" y="104" type="curve"/>
			<point x="397.90684" y="361.36274" type="line"/>
			<point x="312" y="327" type="line"/>
		</contour>
	</outline>
</glyph>
<glyph name="S" format="2">
	<advance width="608.91"/>
	<unicode hex="0053"/>
	<outline>
		<contour>
			<point x="560.79727" y="219.29351" type="curve"/>
			<point x="560.79727" y="68.71949"/>
			<point x="455.88354" y="-11"/>
			<point x="283.01324" y="-11" type="curve" smooth="yes"/>
			<point x="203.71524" y="-11"/>
			<point x="145.37123" y="0.76497"/>
			<point x="50" y="67.21711" type="curve"/>
			<point x="90.74007" y="130.87787" type="line"/>
			<point x="133.91308" y="104.22623"/>
			<point x="202.63308" y="67.88354"/>
			<point x="271.04966" y="67.88354" type="curve" smooth="yes"/>
			<point x="363.2508" y="67.88354"/>
			<point x="456.38897" y="93.94268"/>
			<point x="456.38897" y="216.16289" type="curve" smooth="yes"/>
			<point x="456.38897" y="287.14571"/>
			<point x="378.38141" y="317.82995"/>
			<point x="305.78979" y="339.68227" type="curve" smooth="yes"/>
			<point x="182.77985" y="376.71207"/>
			<point x="71.91807" y="422.44992"/>
			<point x="71.91807" y="554.91258" type="curve" smooth="yes"/>
			<point x="71.91807" y="701.83272"/>
			<point x="177.86109" y="770.70007"/>
			<point x="337.05876" y="770.70007" type="curve" smooth="yes"/>
			<point x="420.30472" y="770.70007"/>
			<point x="498.33892" y="746.8073"/>
			<point x="552.2253" y="700.8996" type="curve"/>
			<point x="495.56223" y="643.3193" type="line"/>
			<point x="457.45881" y="667.54437"/>
			<point x="414.27392" y="693.08966"/>
			<point x="341.45232" y="693.08966" type="curve" smooth="yes"/>
			<point x="272.25659" y="693.08966"/>
			<point x="180.12037" y="679.00691"/>
			<point x="180.12037" y="574.87657" type="curve" smooth="yes"/>
			<point x="180.12037" y="482.21907"/>
			<point x="241.94711" y="456.13474"/>
			<point x="315.79549" y="436.39148" type="curve" smooth="yes"/>
			<point x="462.47431" y="397.17709"/>
			<point x="560.79727" y="369.32382"/>
		</contour>
	</outline>
</glyph>
<glyph name="T" format="2">
	<advance width="580"/>
	<unicode hex="0054"/>
	<guideline x="376.23" y="701.98" angle="0"/>
	<outline>
		<contour>
			<point x="550" y="757" type="line"/>
			<point x="30" y="757" type="line"/>
			<point x="30" y="673" type="line"/>
			<point x="135" y="685" type="line"/>
			<point x="135" y="685"/>
			<point x="445" y="685"/>
			<point x="445" y="685" type="curve"/>
			<point x="445" y="685"/>
			<point x="550" y="673"/>
			<point x="550" y="673" type="curve"/>
		</contour>
		<contour>
			<point x="233" y="746" type="line"/>
			<point x="233" y="746"/>
			<point x="244" y="587"/>
			<point x="244" y="587" type="curve"/>
			<point x="244" y="153" type="line"/>
			<point x="244" y="153"/>
			<point x="230" y="1"/>
			<point x="230" y="0" type="curve"/>
			<point x="350" y="0" type="line"/>
			<point x="350" y="745" type="line"/>
		</contour>
	</outline>
</glyph>
<glyph name="V" format="2">
	<advance width="662.11"/>
	<unicode hex="0056"/>
	<outline>
		<contour>
			<point x="546.561" y="757.385" type="line"/>
			<point x="339.478" y="99.95" type="line"/>
			<point x="325.328" y="99.95" type="line"/>
			<point x="122.625" y="756.666" type="line"/>
			<point x="10" y="757.385" type="line"/>
			<point x="62.618" y="618.567" type="line"/>
			<point x="264.261" y="0" type="line"/>
			<point x="393.506" y="0" type="line"/>
			<point x="597.022" y="609.6" type="line"/>
			<point x="652.114" y="756.666" type="line"/>
		</contour>
	</outline>
</glyph>
<glyph name="Y" format="2">
	<advance width="659.34"/>
	<unicode hex="0059"/>
	<anchor x="92.8225" y="800" name="top"/>
	<anchor x="133.37" y="0" name="bottom"/>
	<anchor x="245.37" y="10" name="ogonek"/>
	<anchor x="14.37" y="800" name="topleft"/>
	<anchor x="1539.64391" y="800" name="topright"/>
	<outline>
		<contour>
			<point x="277.00187" y="153" type="curve" smooth="yes"/>
			<point x="396.00187" y="153"/>
			<point x="532.00187" y="285"/>
			<point x="532.00187" y="285" type="curve"/>
			<point x="506.00187" y="343" type="line"/>
			<point x="472.30639" y="311"/>
			<point x="372.17877" y="247"/>
			<point x="309.00187" y="247" type="curve" smooth="yes"/>
			<point x="230.00187" y="247"/>
			<point x="178.24572" y="287.36594"/>
			<point x="178.00187" y="379.43767" type="curve" smooth="yes"/>
			<point x="177.00187" y="757" type="line"/>
			<point x="177.00187" y="757"/>
			<point x="65.00187" y="757"/>
			<point x="65.00187" y="757" type="curve"/>
			<point x="65.00187" y="757"/>
			<point x="78.00187" y="588"/>
			<point x="78.00187" y="588" type="curve"/>
			<point x="79.00187" y="305.88829" type="line" smooth="yes"/>
			<point x="79.29038" y="224.49538"/>
			<point x="159.41673" y="153"/>
		</contour>
		<contour>
			<point x="266.05848" y="-59.90115" type="curve"/>
			<point x="298.05848" y="-135.90115" type="line"/>
			<point x="408.11248" y="-94.95015"/>
			<point x="594.344" y="-26.227"/>
			<point x="594.344" y="133" type="curve" smooth="yes"/>
			<point x="594.344" y="757" type="line"/>
			<point x="594.344" y="757"/>
			<point x="478.344" y="757"/>
			<point x="478.344" y="757" type="curve"/>
			<point x="490.344" y="590" type="line"/>
			<point x="491.344" y="147.175" type="line" smooth="yes"/>
			<point x="491.61253" y="28.26322"/>
			<point x="382.94402" y="-14"/>
		</contour>
	</outline>
</glyph>
<glyph name="Z" format="2">
	<advance width="618.14"/>
	<unicode hex="005A"/>
	<outline>
		<contour>
			<point x="558" y="0" type="line"/>
			<point x="558.143" y="85" type="line"/>
			<point x="441.42907" y="73" type="line"/>
			<point x="165.92795" y="72.58035" type="line"/>
			<point x="568" y="676" type="line"/>
			<point x="568.143" y="758" type="line"/>
			<point x="66" y="758" type="line"/>
			<point x="66" y="674" type="line"/>
			<point x="211.77195" y="686" type="line"/>
			<point x="456.13079" y="685.71784" type="line"/>
			<point x="50" y="65" type="line"/>
			<point x="50" y="0" type="line"/>
		</contour>
	</outline>
</glyph>
<glyph name="b" format="2">
	<advance width="650"/>
	<unicode hex="0062"/>
	<guideline x="78.31" y="329" angle="0"/>
	<guideline x="78.31" y="485" angle="0"/>
	<guideline x="78.31" y="83" angle="0"/>
	<outline>
		<contour>
			<point x="62" y="827" type="curve"/>
			<point x="67" y="618" type="line"/>
			<point x="67" y="107" type="line"/>
			<point x="86.64399" y="70.06948"/>
			<point x="164" y="-11"/>
			<point x="317" y="-11" type="curve" smooth="yes"/>
			<point x="500" y="-11"/>
			<point x="600" y="130"/>
			<point x="600" y="298" type="curve" smooth="yes"/>
			<point x="600" y="562"/>
			<point x="435" y="600"/>
			<point x="335" y="600" type="curve" smooth="yes"/>
			<point x="212" y="600"/>
			<point x="119" y="533"/>
			<point x="119" y="533" type="curve"/>
			<point x="139" y="460" type="line"/>
			<point x="139" y="460"/>
			<point x="214" y="528"/>
			<point x="325" y="528" type="curve" smooth="yes"/>
			<point x="426" y="528"/>
			<point x="494" y="478"/>
			<point x="494" y="301" type="curve" smooth="yes"/>
			<point x="494" y="147"/>
			<point x="425" y="65"/>
			<point x="320" y="65" type="curve" smooth="yes"/>
			<point x="241" y="65"/>
			<point x="182" y="113"/>
			<point x="169" y="133" type="curve"/>
			<point x="169" y="837" type="line"/>
			<point x="169" y="837"/>
			<point x="62" y="827"/>
		</contour>
	</outline>
</glyph>
<glyph name="c" format="2">
	<advance width="570.62"/>
	<unicode hex="0063"/>
	<outline>
		<contour>
			<point x="520.62108" y="42.89929" type="curve"/>
			<point x="492.79368" y="111.28517" type="line"/>
			<point x="454.03874" y="91.86887"/>
			<point x="393.04093" y="67.957"/>
			<point x="318.578" y="67.957" type="curve" smooth="yes"/>
			<point x="241.157" y="67.957"/>
			<point x="152.153" y="128.321"/>
			<point x="152.153" y="295.612" type="curve" smooth="yes"/>
			<point x="152.153" y="435.92665"/>
			<point x="214.29901" y="520.45312"/>
			<point x="319.22094" y="520.45312" type="curve" smooth="yes"/>
			<point x="387.99047" y="520.45312"/>
			<point x="445.50107" y="508.37929"/>
			<point x="485.41879" y="480.81766" type="curve"/>
			<point x="516.01" y="559.831" type="line"/>
			<point x="495.19173" y="570.77463"/>
			<point x="437.44428" y="599.957"/>
			<point x="340.874" y="599.957" type="curve" smooth="yes"/>
			<point x="193.28" y="599.957"/>
			<point x="50" y="506.518"/>
			<point x="50" y="258.928" type="curve" smooth="yes"/>
			<point x="50" y="81.666"/>
			<point x="171.573" y="-11"/>
			<point x="312.181" y="-11" type="curve" smooth="yes"/>
			<point x="377.18969" y="-11"/>
			<point x="448.67578" y="5.90349"/>
		</contour>
	</outline>
</glyph>
<glyph name="e" format="2">
	<advance width="607.37"/>
	<unicode hex="0065"/>
	<guideline x="609.72" y="417" angle="0"/>
	<guideline x="609.72" y="87" angle="0"/>
	<guideline x="609.72" y="535" angle="0"/>
	<guideline x="898.72" y="0" angle="0"/>
	<guideline x="609.72" y="357" angle="0"/>
	<guideline x="609.72" y="326" angle="0"/>
	<anchor x="342.52" y="600" name="top"/>
	<anchor x="278" y="0" name="bottom"/>
	<anchor x="484" y="10" name="ogonek"/>
	<outline>
		<contour>
			<point x="550.48751" y="44.41869" type="curve"/>
			<point x="517.83337" y="105.45148" type="line"/>
			<point x="485.18283" y="86.55814"/>
			<point x="423.83265" y="67.957"/>
			<point x="338.205" y="67.957" type="curve" smooth="yes"/>
			<point x="259.96281" y="67.957"/>
			<point x="154.153" y="118.32422"/>
			<point x="154.153" y="284.612" type="curve" smooth="yes"/>
			<point x="154.153" y="452.06644"/>
			<point x="211.43756" y="528"/>
			<point x="335.88841" y="528" type="curve" smooth="yes"/>
			<point x="430.16624" y="528"/>
			<point x="461.162" y="443.183"/>
			<point x="461.162" y="359.362" type="curve"/>
			<point x="461.162" y="300" type="line"/>
			<point x="477.699" y="323.13" type="line"/>
			<point x="259.8797" y="322.82532" type="line"/>
			<point x="125.392" y="316.70688" type="line"/>
			<point x="125.392" y="255.875" type="line"/>
			<point x="557.369" y="254.956" type="line"/>
			<point x="557.369" y="357" type="line" smooth="yes"/>
			<point x="557.369" y="539.785"/>
			<point x="447.95502" y="599.957"/>
			<point x="326.2659" y="599.957" type="curve" smooth="yes"/>
			<point x="190.7649" y="599.957"/>
			<point x="50" y="517.49625"/>
			<point x="50" y="269.90625" type="curve" smooth="yes"/>
			<point x="50" y="108.03294"/>
			<point x="181.358" y="-11"/>
			<point x="330.181" y="-11" type="curve" smooth="yes"/>
			<point x="388.97493" y="-11"/>
			<point x="478.01959" y="-0.64258"/>
		</contour>
	</outline>
</glyph>
<glyph name="h" format="2">
	<advance width="612.95"/>
	<unicode hex="0068"/>
	<outline>
		<contour>
			<point x="60.00491" y="0.413" type="line"/>
			<point x="167.715" y="0.413" type="line"/>
			<point x="168.052" y="836.92" type="line"/>
			<point x="60.052" y="826.92" type="line"/>
			<point x="66.319" y="618.287" type="line"/>
			<point x="66.33" y="116.779" type="line"/>
		</contour>
		<contour>
			<point x="546.84" y="397.791" type="line"/>
			<point x="546.84" y="531"/>
			<point x="485.28392" y="600"/>
			<point x="348.698" y="600" type="curve" smooth="yes"/>
			<point x="251.54185" y="600"/>
			<point x="152.87304" y="517.67243"/>
			<point x="135.70004" y="504.87343" type="curve"/>
			<point x="159.657" y="460.497" type="line"/>
			<point x="166.558" y="468.711"/>
			<point x="244.46367" y="518.95705"/>
			<point x="337.65799" y="518.95705" type="curve" smooth="yes"/>
			<point x="410.86406" y="518.95705"/>
			<point x="445.09" y="471.78906"/>
			<point x="445.09" y="421.26758" type="curve" smooth="yes"/>
			<point x="445.09" y="0" type="line"/>
			<point x="552.951" y="0.032" type="line"/>
			<point x="546.835" y="116.283" type="line"/>
		</contour>
	</outline>
</glyph>
<glyph name="i" format="2">
	<advance width="256.24"/>
	<unicode hex="0069"/>
	<anchor x="109" y="0" name="bottom"/>
	<outline>
		<contour>
			<point x="128.122" y="677.965" type="curve" smooth="yes"/>
			<point x="167.028" y="677.965"/>
			<point x="196.242" y="709.788"/>
			<point x="196.242" y="749.212" type="curve" smooth="yes"/>
			<point x="196.242" y="788.636"/>
			<point x="167.028" y="820.458"/>
			<point x="128.122" y="820.458" type="curve" smooth="yes"/>
			<point x="89.216" y="820.458"/>
			<point x="60.001" y="788.636"/>
			<point x="60.001" y="749.212" type="curve" smooth="yes"/>
			<point x="60.001" y="709.788"/>
			<point x="89.216" y="677.965"/>
		</contour>
		<component base="idotless" xOffset="-29"/>
	</outline>
</glyph>
<glyph name="m" format="2">
	<advance width="917.92"/>
	<unicode hex="006D"/>
	<outline>
		<contour>
			<point x="851.93" y="397.759" type="line" smooth="yes"/>
			<point x="851.93" y="544.51042"/>
			<point x="781.77885" y="599.968"/>
			<point x="652.181" y="599.968" type="curve" smooth="yes"/>
			<point x="555.89865" y="599.968"/>
			<point x="466.648" y="519.111"/>
			<point x="449.475" y="506.312" type="curve"/>
			<point x="475.747" y="457.465" type="line"/>
			<point x="481.5846" y="464.956"/>
			<point x="568.23706" y="519.596"/>
			<point x="638.70594" y="519.596" type="curve" smooth="yes"/>
			<point x="707.25802" y="519.596"/>
			<point x="751.18" y="489.132"/>
			<point x="751.18" y="404.287" type="curve" smooth="yes"/>
			<point x="751.18" y="-0.032" type="line"/>
			<point x="857.925" y="0" type="line"/>
			<point x="851.925" y="116.251" type="line"/>
		</contour>
		<contour>
			<point x="60.422" y="0.413" type="line"/>
			<point x="167.661" y="0.413" type="line"/>
			<point x="168.335" y="589.925" type="line"/>
			<point x="59.998" y="579.32895" type="line"/>
			<point x="66.271" y="398.287" type="line"/>
			<point x="66.273" y="304.451"/>
			<point x="66.274" y="210.615"/>
			<point x="66.276" y="116.779" type="curve"/>
		</contour>
		<contour>
			<point x="518.19947" y="397.759" type="line" smooth="yes"/>
			<point x="518.19947" y="544.51"/>
			<point x="448.04847" y="599.968"/>
			<point x="318.45047" y="599.968" type="curve" smooth="yes"/>
			<point x="222.16847" y="599.968"/>
			<point x="132.91747" y="519.111"/>
			<point x="115.74447" y="506.312" type="curve"/>
			<point x="142.01647" y="463.465" type="line"/>
			<point x="147.85447" y="470.956"/>
			<point x="234.50647" y="519.596"/>
			<point x="304.97547" y="519.596" type="curve" smooth="yes"/>
			<point x="373.52747" y="519.596"/>
			<point x="417.44947" y="489.132"/>
			<point x="417.44947" y="404.287" type="curve" smooth="yes"/>
			<point x="417.44947" y="-0.032" type="line"/>
			<point x="518.19447" y="0" type="line"/>
		</contour>
	</outline>
</glyph>
<glyph name="n" format="2">
	<advance width="615.37"/>
	<unicode hex="006E"/>
	<guideline x="57.63" y="299" angle="0"/>
	<anchor x="114.24629" y="600" name="top"/>
	<anchor x="272.59" y="0" name="bottom"/>
	<outline>
		<contour>
			<point x="549.38" y="404.98438" type="line"/>
			<point x="549.38" y="545.69429"/>
			<point x="474.63012" y="600"/>
			<point x="341.7" y="600" type="curve" smooth="yes"/>
			<point x="263.36862" y="600"/>
			<point x="150.098" y="516.143"/>
			<point x="132.925" y="503.344" type="curve"/>
			<point x="159.197" y="457.497" type="line"/>
			<point x="166.098" y="465.711"/>
			<point x="249.06219" y="519"/>
			<point x="339.4049" y="519" type="curve" smooth="yes"/>
			<point x="390.42547" y="519"/>
			<point x="448.53939" y="491.07019"/>
			<point x="448.4049" y="418" type="curve" smooth="yes"/>
			<point x="447.63" y="0" type="line"/>
			<point x="555.37297" y="0.032" type="line"/>
			<point x="549.375" y="116.283" type="line"/>
		</contour>
		<contour>
			<point x="61.0239" y="0.413" type="line"/>
			<point x="169.255" y="0.413" type="line"/>
			<point x="169.44" y="483.132" type="line"/>
			<point x="166.929" y="589.9688" type="line"/>
			<point x="60.00376" y="580.3268" type="line"/>
			<point x="66.865" y="398.287" type="line"/>
			<point x="66.87" y="116.779" type="line"/>
		</contour>
	</outline>
</glyph>
<glyph name="p" format="2">
	<advance width="638.4"/>
	<unicode hex="0070"/>
	<outline>
		<contour>
			<point x="334.75" y="600.42616" type="curve" smooth="yes"/>
			<point x="204.237" y="600.42616"/>
			<point x="161.508" y="532.80516"/>
			<point x="115.508" y="496.61416" type="curve"/>
			<point x="143.863" y="443.73116" type="line"/>
			<point x="178.863" y="476.73116"/>
			<point x="228.6" y="524.46916"/>
			<point x="307.384" y="524.46916" type="curve" smooth="yes"/>
			<point x="384.291" y="524.46916"/>
			<point x="482.548" y="498.45216"/>
			<point x="482.548" y="289.42616" type="curve" smooth="yes"/>
			<point x="482.548" y="79.94316"/>
			<point x="377.124" y="61.38316"/>
			<point x="310.124" y="61.38316" type="curve" smooth="yes"/>
			<point x="207.328" y="61.38316"/>
			<point x="163.941" y="100.42616"/>
			<point x="143.941" y="113.42616" type="curve"/>
			<point x="121.811" y="37.54816" type="line"/>
			<point x="158.212" y="17.54816"/>
			<point x="206.578" y="-10.57384"/>
			<point x="313.124" y="-10.57384" type="curve" smooth="yes"/>
			<point x="433.839" y="-10.57384"/>
			<point x="588.403" y="52.38316"/>
			<point x="588.403" y="306.90416" type="curve" smooth="yes"/>
			<point x="588.403" y="558.31316"/>
			<point x="418.78" y="600.42616"/>
		</contour>
		<contour>
			<point x="50.263" y="-236.57384" type="line"/>
			<point x="158.212" y="-236.57384" type="line"/>
			<point x="158.212" y="502.73116" type="line"/>
			<point x="157.399" y="590.42616" type="line"/>
			<point x="49.999" y="580.01316" type="line"/>
			<point x="56.348" y="470.64716" type="line"/>
			<point x="56.337" y="-134.17684" type="line"/>
		</contour>
	</outline>
</glyph>
<glyph name="s" format="2">
	<advance width="516.92"/>
	<unicode hex="0073"/>
	<guideline x="52.39" y="204.14" angle="270"/>
	<guideline x="446.39" y="204.14" angle="270"/>
	<outline>
		<contour>
			<point x="466.924" y="171.459" type="curve" smooth="yes"/>
			<point x="466.924" y="53.1875"/>
			<point x="376.66258" y="-11"/>
			<point x="240.879" y="-11" type="curve" smooth="yes"/>
			<point x="178.593" y="-11"/>
			<point x="124.911" y="-1.759"/>
			<point x="50" y="50.437" type="curve"/>
			<point x="82" y="111.437" type="line"/>
			<point x="115.911" y="90.503"/>
			<point x="177.743" y="61.957"/>
			<point x="231.482" y="61.957" type="curve" smooth="yes"/>
			<point x="303.903" y="61.957"/>
			<point x="377.06" y="73"/>
			<point x="377.06" y="169" type="curve" smooth="yes"/>
			<point x="377.06" y="266.91016"/>
			<point x="65.645" y="260.43359"/>
			<point x="65.645" y="431.935" type="curve" smooth="yes"/>
			<point x="65.645" y="547.33584"/>
			<point x="155.92881" y="603"/>
			<point x="283.32965" y="603" type="curve" smooth="yes"/>
			<point x="348.71717" y="603"/>
			<point x="417.865" y="584.23324"/>
			<point x="460.191" y="548.174" type="curve"/>
			<point x="415.68399" y="491.94992" type="line"/>
			<point x="385.75521" y="510.97848"/>
			<point x="343.98009" y="531.043"/>
			<point x="286.78109" y="531.043" type="curve" smooth="yes"/>
			<point x="232.42953" y="531.043"/>
			<point x="160.06" y="530.97848"/>
			<point x="160.06" y="449.187" type="curve" smooth="yes"/>
			<point x="160.06" y="381.86304"/>
			<point x="276.045" y="359.01"/>
			<point x="356.474" y="319.211" type="curve" smooth="yes"/>
			<point x="443.458" y="276.168"/>
			<point x="466.924" y="229.161"/>
		</contour>
	</outline>
</glyph>
<glyph name="t" format="2">
	<advance width="416.9"/>
	<unicode hex="0074"/>
	<outline>
		<contour>
			<point x="40.003" y="520.179" type="line"/>
			<point x="363.98" y="520.179" type="line"/>
			<point x="363.98" y="588.179" type="line"/>
			<point x="208.018" y="588.115" type="line"/>
			<point x="40.003" y="575.851" type="line"/>
		</contour>
		<contour>
			<point x="386.90498" y="22.8212" type="curve"/>
			<point x="362.32074" y="81.66938" type="line"/>
			<point x="338.96437" y="72.53871"/>
			<point x="316.84724" y="67.957"/>
			<point x="286.91898" y="67.957" type="curve" smooth="yes"/>
			<point x="231.47109" y="67.957"/>
			<point x="204.519" y="102.368"/>
			<point x="204.519" y="165.816" type="curve"/>
			<point x="204.677" y="715.984" type="line"/>
			<point x="96.113" y="689.488" type="line"/>
			<point x="102.113" y="561.266" type="line"/>
			<point x="102.113" y="153.562" type="line" smooth="yes"/>
			<point x="102.113" y="30.92404"/>
			<point x="191.30291" y="-10.606"/>
			<point x="257.54018" y="-10.606" type="curve" smooth="yes"/>
			<point x="309.85747" y="-10.606"/>
			<point x="359.47321" y="8.39326"/>
		</contour>
	</outline>
</glyph>
<glyph name="w" format="2">
	<advance width="989.16"/>
	<unicode hex="0077"/>
	<outline>
		<contour>
			<point x="227.201" y="0" type="line"/>
			<point x="358.446" y="0" type="line"/>
			<point x="494.30236" y="443.69824" type="line"/>
			<point x="627.6796" y="0" type="line"/>
			<point x="758.9246" y="0" type="line"/>
			<point x="900.9886" y="463.972" type="line"/>
			<point x="949.1636" y="587.394" type="line"/>
			<point x="841.1826" y="587.394" type="line"/>
			<point x="701.8966" y="99.95" type="line"/>
			<point x="687.7466" y="99.95" type="line"/>
			<point x="551.5436" y="587.394" type="line"/>
			<point x="440.60872" y="587.06056" type="line"/>
			<point x="301.418" y="99.95" type="line"/>
			<point x="287.268" y="99.95" type="line"/>
			<point x="151.065" y="587.394" type="line"/>
			<point x="40.002" y="587.394" type="line"/>
			<point x="88.829" y="460.314" type="line"/>
		</contour>
	</outline>
</glyph>
<glyph name="x" format="2">
	<advance width="630.71"/>
	<unicode hex="0078"/>
	<outline>
		<contour>
			<point x="467.12951" y="0.14115" type="line"/>
			<point x="590.711" y="0" type="line"/>
			<point x="181.4447" y="588.099" type="line"/>
			<point x="60.3757" y="588.245" type="line"/>
		</contour>
		<contour>
			<point x="272.05707" y="328.61313" type="line"/>
			<point x="127.0957" y="132.343" type="line"/>
			<point x="39.9967" y="0" type="line"/>
			<point x="155.9967" y="0" type="line"/>
			<point x="320.9468" y="252.02318" type="line"/>
		</contour>
		<contour>
			<point x="308.73717" y="362.13473" type="line"/>
			<point x="355.58633" y="283.30858" type="line"/>
			<point x="469.52213" y="455.86185" type="line"/>
			<point x="561.62113" y="588.20485" type="line"/>
			<point x="445.62113" y="588.20485" type="line"/>
		</contour>
	</outline>
</glyph>
<glyph name="y" format="2">
	<advance width="620.99"/>
	<unicode hex="0079"/>
	<anchor x="316.43" y="600" name="top"/>
	<anchor x="293.43" y="0" name="bottom"/>
	<anchor x="518.43" y="10" name="ogonek"/>
	<anchor x="554.24" y="600" name="topright"/>
	<outline>
		<contour>
			<point x="178.43" y="590" type="line"/>
			<point x="69.7429" y="590" type="line"/>
			<point x="76.43" y="465.539" type="line"/>
			<point x="76.43" y="152" type="line"/>
			<point x="76.43" y="42.4"/>
			<point x="191.63" y="-11"/>
			<point x="273.43" y="-11" type="curve" smooth="yes"/>
			<point x="366.43" y="-11"/>
			<point x="492.35578" y="88.22656"/>
			<point x="510.35578" y="101.22656" type="curve"/>
			<point x="483.35578" y="150.22656" type="line"/>
			<point x="476.35578" y="141.22656"/>
			<point x="388.43" y="76"/>
			<point x="287.43" y="76" type="curve" smooth="yes"/>
			<point x="241.43" y="76"/>
			<point x="178.43" y="114.883"/>
			<point x="178.43" y="163" type="curve" smooth="yes"/>
		</contour>
		<contour>
			<point x="560.98501" y="7.84766" type="curve" smooth="yes"/>
			<point x="560.98501" y="590" type="line"/>
			<point x="560.98501" y="590"/>
			<point x="451.98501" y="590"/>
			<point x="451.98501" y="590" type="curve"/>
			<point x="458.98501" y="463.44531" type="line"/>
			<point x="457.98501" y="14.31641" type="line" smooth="yes"/>
			<point x="457.82806" y="-56.17346"/>
			<point x="422.49" y="-130.19412"/>
			<point x="313.32594" y="-130.19412" type="curve" smooth="yes"/>
			<point x="239.11109" y="-130.19412"/>
			<point x="127.94233" y="-93.25569"/>
			<point x="100.258" y="-72.888" type="curve"/>
			<point x="59.99781" y="-137.47739" type="line"/>
			<point x="89.96678" y="-160.87171"/>
			<point x="216.5369" y="-209.30078"/>
			<point x="309.32594" y="-209.30078" type="curve" smooth="yes"/>
			<point x="459.25953" y="-209.30078"/>
			<point x="560.98501" y="-112.87085"/>
		</contour>
	</outline>
</glyph>
<glyph name="dieresis" format="2">
	<advance width="449.22"/>
	<unicode hex="00A8"/>
	<anchor x="175.29481" y="743.34754" name="_top"/>
	<outline>
		<contour>
			<point x="36.321" y="985.45421" type="curve" smooth="yes"/>
			<point x="75.31738" y="985.45421"/>
			<point x="102.6374" y="953.86028"/>
			<point x="102.6374" y="914.09497" type="curve" smooth="yes"/>
			<point x="102.6374" y="874.68441"/>
			<point x="75.31738" y="842.73479"/>
			<point x="36.321" y="842.73479" type="curve" smooth="yes"/>
			<point x="-2.67632" y="842.73479"/>
			<point x="-29.9954" y="874.68441"/>
			<point x="-29.9954" y="914.09497" type="curve" smooth="yes"/>
			<point x="-29.9954" y="953.50553"/>
			<point x="-2.67632" y="985.45421"/>
		</contour>
		<contour>
			<point x="312.901" y="985.454" type="curve" smooth="yes"/>
			<point x="351.897" y="985.454"/>
			<point x="379.217" y="953.86"/>
			<point x="379.217" y="914.095" type="curve" smooth="yes"/>
			<point x="379.217" y="874.684"/>
			<point x="351.897" y="842.735"/>
			<point x="312.901" y="842.735" type="curve" smooth="yes"/>
			<point x="273.904" y="842.735"/>
			<point x="246.585" y="874.684"/>
			<point x="246.585" y="914.095" type="curve" smooth="yes"/>
			<point x="246.585" y="953.506"/>
			<point x="273.904" y="985.454"/>
		</contour>
	</outline>
</glyph>
<glyph name="tilde" format="2">
	<advance width="468.87"/>
	<unicode hex="02DC"/>
	<anchor x="42.00424" y="600" name="_top"/>
	<outline>
		<contour>
			<point x="150.31815" y="748.62724" type="curve" smooth="yes"/>
			<point x="194.8082" y="748.62724"/>
			<point x="235.51717" y="685.25279"/>
			<point x="298.65971" y="685.25279" type="curve" smooth="yes"/>
			<point x="376.07232" y="685.25279"/>
			<point x="438.35255" y="732.10788"/>
			<point x="433.35255" y="829.32509" type="curve"/>
			<point x="372.85708" y="829.34669" type="line"/>
			<point x="377.85708" y="770.48733"/>
			<point x="336.82049" y="765.97209"/>
			<point x="317.77749" y="765.97209" type="curve" smooth="yes"/>
			<point x="273.97275" y="765.97209"/>
			<point x="233.25495" y="829.34667"/>
			<point x="169.43674" y="829.34667" type="curve" smooth="yes"/>
			<point x="92.02406" y="829.34667"/>
			<point x="29.7435" y="782.49117"/>
			<point x="34.7435" y="685.27495" type="curve"/>
			<point x="95.23883" y="685.25284" type="line"/>
			<point x="90.23883" y="744.11209"/>
			<point x="131.27594" y="748.62724"/>
		</contour>
	</outline>
</glyph>
